<svg width="325" height="44" viewBox="0 0 325 44" fill="none" xmlns="http://www.w3.org/2000/svg">
<path d="M1.21773 13.24H12.0177V17.2H12.7377C13.4977 15.56 14.5777 14.36 15.9777 13.6C17.3777 12.8 18.9777 12.4 20.7777 12.4C23.7777 12.4 26.1977 13.38 28.0377 15.34C29.8777 17.3 30.8577 20.16 30.9777 23.92L26.0577 24.64C26.0577 21.88 25.3977 19.9 24.0777 18.7C22.7577 17.46 21.1377 16.84 19.2177 16.84C17.9777 16.84 16.8977 17.08 15.9777 17.56C15.0977 18.04 14.3577 18.7 13.7577 19.54C13.1577 20.38 12.7177 21.36 12.4377 22.48C12.1577 23.6 12.0177 24.8 12.0177 26.08V38.68H19.5777V43H0.497735V38.68H7.33774V17.56H1.21773V13.24ZM45.816 20.92C45.816 22.36 46.416 23.46 47.616 24.22C48.856 24.98 51.096 25.48 54.336 25.72C57.816 26 60.456 26.84 62.256 28.24C64.096 29.6 65.016 31.6 65.016 34.24V34.6C65.016 36.04 64.716 37.34 64.116 38.5C63.556 39.62 62.756 40.58 61.716 41.38C60.716 42.18 59.476 42.78 57.996 43.18C56.556 43.62 54.976 43.84 53.256 43.84C50.936 43.84 48.936 43.54 47.256 42.94C45.616 42.3 44.236 41.48 43.116 40.48C42.036 39.44 41.216 38.28 40.656 37C40.096 35.68 39.776 34.36 39.696 33.04L44.136 31.96C44.336 34.24 45.216 36.08 46.776 37.48C48.336 38.84 50.416 39.52 53.016 39.52C55.216 39.52 56.976 39.1 58.296 38.26C59.656 37.38 60.336 36.16 60.336 34.6C60.336 32.92 59.676 31.72 58.356 31C57.036 30.28 54.896 29.82 51.936 29.62C48.496 29.38 45.856 28.58 44.016 27.22C42.176 25.86 41.256 23.88 41.256 21.28V20.92C41.256 19.52 41.556 18.3 42.156 17.26C42.756 16.18 43.556 15.28 44.556 14.56C45.596 13.84 46.756 13.3 48.036 12.94C49.316 12.58 50.656 12.4 52.056 12.4C54.016 12.4 55.736 12.68 57.216 13.24C58.696 13.76 59.936 14.46 60.936 15.34C61.936 16.18 62.696 17.16 63.216 18.28C63.776 19.4 64.136 20.52 64.296 21.64L59.856 22.72C59.656 20.8 58.876 19.3 57.516 18.22C56.196 17.14 54.456 16.6 52.296 16.6C51.456 16.6 50.636 16.7 49.836 16.9C49.076 17.06 48.396 17.32 47.796 17.68C47.196 18.04 46.716 18.5 46.356 19.06C45.996 19.58 45.816 20.2 45.816 20.92ZM97.9743 37.96H97.2543C96.2943 39.96 94.9543 41.44 93.2343 42.4C91.5543 43.36 89.7743 43.84 87.8943 43.84C85.9343 43.84 84.1143 43.52 82.4343 42.88C80.7543 42.2 79.2743 41.22 77.9943 39.94C76.7543 38.62 75.7743 37.02 75.0543 35.14C74.3343 33.26 73.9743 31.08 73.9743 28.6V27.64C73.9743 25.2 74.3343 23.04 75.0543 21.16C75.7743 19.28 76.7543 17.7 77.9943 16.42C79.2743 15.1 80.7543 14.1 82.4343 13.42C84.1143 12.74 85.8943 12.4 87.7743 12.4C89.8143 12.4 91.6543 12.86 93.2943 13.78C94.9743 14.66 96.2943 16.04 97.2543 17.92H97.9743V13.24H102.654V36.88C102.654 38.08 103.194 38.68 104.274 38.68H105.774V43H102.594C101.234 43 100.114 42.56 99.2343 41.68C98.3943 40.8 97.9743 39.68 97.9743 38.32V37.96ZM88.3743 39.4C89.7743 39.4 91.0543 39.14 92.2143 38.62C93.4143 38.1 94.4343 37.36 95.2743 36.4C96.1143 35.44 96.7743 34.3 97.2543 32.98C97.7343 31.62 97.9743 30.12 97.9743 28.48V27.76C97.9743 26.16 97.7343 24.7 97.2543 23.38C96.7743 22.02 96.0943 20.86 95.2143 19.9C94.3743 18.94 93.3543 18.2 92.1543 17.68C90.9943 17.12 89.7343 16.84 88.3743 16.84C86.9743 16.84 85.6943 17.1 84.5343 17.62C83.3743 18.14 82.3543 18.88 81.4743 19.84C80.6343 20.76 79.9743 21.9 79.4943 23.26C79.0143 24.58 78.7743 26.04 78.7743 27.64V28.6C78.7743 32 79.6543 34.66 81.4143 36.58C83.2143 38.46 85.5343 39.4 88.3743 39.4ZM113.113 38.68H123.913V5.32H113.473V0.999997H128.593V38.68H139.393V43H113.113V38.68ZM153.271 29.56C153.391 32.52 154.311 34.9 156.031 36.7C157.751 38.5 160.151 39.4 163.231 39.4C164.631 39.4 165.851 39.24 166.891 38.92C167.931 38.6 168.811 38.16 169.531 37.6C170.291 37.04 170.891 36.4 171.331 35.68C171.811 34.92 172.191 34.12 172.471 33.28L176.911 34.48C176.071 37.24 174.511 39.5 172.231 41.26C169.991 42.98 166.951 43.84 163.111 43.84C160.991 43.84 159.031 43.48 157.231 42.76C155.471 42 153.951 40.94 152.671 39.58C151.391 38.22 150.391 36.6 149.671 34.72C148.951 32.84 148.591 30.76 148.591 28.48V27.04C148.591 24.96 148.951 23.02 149.671 21.22C150.431 19.42 151.471 17.88 152.791 16.6C154.111 15.28 155.651 14.26 157.411 13.54C159.211 12.78 161.151 12.4 163.231 12.4C165.671 12.4 167.771 12.86 169.531 13.78C171.331 14.66 172.791 15.76 173.911 17.08C175.071 18.4 175.911 19.84 176.431 21.4C176.991 22.96 177.271 24.4 177.271 25.72V29.56H153.271ZM163.231 16.84C161.911 16.84 160.671 17.06 159.511 17.5C158.391 17.9 157.391 18.48 156.511 19.24C155.671 20 154.971 20.9 154.411 21.94C153.891 22.94 153.551 24.04 153.391 25.24H172.591C172.511 23.96 172.191 22.8 171.631 21.76C171.111 20.72 170.411 19.84 169.531 19.12C168.691 18.4 167.711 17.84 166.591 17.44C165.511 17.04 164.391 16.84 163.231 16.84ZM215.209 43H210.529V21.64C210.529 20.24 210.209 19.1 209.569 18.22C208.929 17.3 207.909 16.84 206.509 16.84C205.189 16.84 204.109 17.34 203.269 18.34C202.469 19.3 202.069 20.8 202.069 22.84V43H197.389V21.4C197.389 20.08 197.029 19 196.309 18.16C195.589 17.28 194.629 16.84 193.429 16.84C191.989 16.84 190.869 17.36 190.069 18.4C189.309 19.44 188.929 20.8 188.929 22.48V43H184.249V13.24H188.929V16.48H189.649C190.169 15.08 190.929 14.06 191.929 13.42C192.929 12.74 194.109 12.4 195.469 12.4C196.909 12.4 198.089 12.78 199.009 13.54C199.969 14.3 200.629 15.28 200.989 16.48H201.709C203.069 13.76 205.229 12.4 208.189 12.4C210.429 12.4 212.149 13.12 213.349 14.56C214.589 15.96 215.209 17.8 215.209 20.08V43ZM232.267 39.64C232.267 38.48 232.667 37.5 233.467 36.7C234.307 35.86 235.307 35.44 236.467 35.44C237.627 35.44 238.607 35.86 239.407 36.7C240.247 37.5 240.667 38.48 240.667 39.64C240.667 40.8 240.247 41.8 239.407 42.64C238.607 43.44 237.627 43.84 236.467 43.84C235.307 43.84 234.307 43.44 233.467 42.64C232.667 41.8 232.267 40.8 232.267 39.64ZM269.306 4.36C269.306 3.2 269.706 2.22 270.506 1.42C271.346 0.579998 272.346 0.159997 273.506 0.159997C274.666 0.159997 275.646 0.579998 276.446 1.42C277.286 2.22 277.706 3.2 277.706 4.36C277.706 5.52 277.286 6.52 276.446 7.36C275.646 8.16 274.666 8.56 273.506 8.56C272.346 8.56 271.346 8.16 270.506 7.36C269.706 6.52 269.306 5.52 269.306 4.36ZM260.786 38.68H271.226V17.56H261.866V13.24H275.906V38.68H285.626V43H260.786V38.68ZM324.884 28.48C324.884 30.96 324.464 33.16 323.624 35.08C322.824 36.96 321.744 38.56 320.384 39.88C319.024 41.16 317.424 42.14 315.584 42.82C313.784 43.5 311.904 43.84 309.944 43.84C307.944 43.84 306.044 43.5 304.244 42.82C302.444 42.14 300.864 41.16 299.504 39.88C298.144 38.56 297.044 36.96 296.204 35.08C295.404 33.16 295.004 30.96 295.004 28.48V27.76C295.004 25.32 295.404 23.16 296.204 21.28C297.044 19.36 298.144 17.74 299.504 16.42C300.904 15.1 302.504 14.1 304.304 13.42C306.104 12.74 307.984 12.4 309.944 12.4C311.904 12.4 313.784 12.74 315.584 13.42C317.384 14.1 318.964 15.1 320.324 16.42C321.724 17.74 322.824 19.36 323.624 21.28C324.464 23.16 324.884 25.32 324.884 27.76V28.48ZM309.944 39.4C311.384 39.4 312.704 39.16 313.904 38.68C315.144 38.16 316.224 37.42 317.144 36.46C318.064 35.5 318.784 34.36 319.304 33.04C319.824 31.68 320.084 30.16 320.084 28.48V27.76C320.084 26.16 319.824 24.7 319.304 23.38C318.784 22.02 318.064 20.86 317.144 19.9C316.224 18.94 315.144 18.2 313.904 17.68C312.664 17.12 311.344 16.84 309.944 16.84C308.544 16.84 307.224 17.12 305.984 17.68C304.744 18.2 303.664 18.94 302.744 19.9C301.824 20.86 301.104 22.02 300.584 23.38C300.064 24.7 299.804 26.16 299.804 27.76V28.48C299.804 30.16 300.064 31.68 300.584 33.04C301.104 34.36 301.824 35.5 302.744 36.46C303.664 37.42 304.724 38.16 305.924 38.68C307.164 39.16 308.504 39.4 309.944 39.4Z" fill="#ABD1DD"/>
</svg>
