<svg width="35" height="35" viewBox="0 0 35 35" fill="none" xmlns="http://www.w3.org/2000/svg">
<mask id="mask0_45_129" style="mask-type:alpha" maskUnits="userSpaceOnUse" x="0" y="0" width="35" height="35">
<rect width="35" height="35" fill="#D9D9D9"/>
</mask>
<g mask="url(#mask0_45_129)">
<path d="M17.5 25.5208C19.1528 25.5208 20.6536 25.0529 22.0026 24.1171C23.3516 23.1814 24.3299 21.9479 24.9375 20.4166H10.0625C10.6701 21.9479 11.6484 23.1814 12.9974 24.1171C14.3464 25.0529 15.8472 25.5208 17.5 25.5208ZM11.375 16.0416L12.9792 14.5104L14.5104 16.0416L16.0417 14.5104L12.9792 11.375L9.84375 14.5104L11.375 16.0416ZM20.4896 16.0416L22.0208 14.5104L23.625 16.0416L25.1562 14.5104L22.0208 11.375L18.9583 14.5104L20.4896 16.0416ZM17.5 32.0833C15.4826 32.0833 13.5868 31.7005 11.8125 30.9349C10.0382 30.1692 8.49479 29.1302 7.18229 27.8177C5.86979 26.5052 4.83073 24.9618 4.0651 23.1875C3.29948 21.4132 2.91666 19.5173 2.91666 17.5C2.91666 15.4826 3.29948 13.5868 4.0651 11.8125C4.83073 10.0382 5.86979 8.49475 7.18229 7.18225C8.49479 5.86975 10.0382 4.83069 11.8125 4.06506C13.5868 3.29944 15.4826 2.91663 17.5 2.91663C19.5174 2.91663 21.4132 3.29944 23.1875 4.06506C24.9618 4.83069 26.5052 5.86975 27.8177 7.18225C29.1302 8.49475 30.1693 10.0382 30.9349 11.8125C31.7005 13.5868 32.0833 15.4826 32.0833 17.5C32.0833 19.5173 31.7005 21.4132 30.9349 23.1875C30.1693 24.9618 29.1302 26.5052 27.8177 27.8177C26.5052 29.1302 24.9618 30.1692 23.1875 30.9349C21.4132 31.7005 19.5174 32.0833 17.5 32.0833ZM17.5 29.1666C20.7569 29.1666 23.5156 28.0364 25.776 25.776C28.0365 23.5156 29.1667 20.7569 29.1667 17.5C29.1667 14.243 28.0365 11.4843 25.776 9.22392C23.5156 6.9635 20.7569 5.83329 17.5 5.83329C14.2431 5.83329 11.4844 6.9635 9.22396 9.22392C6.96354 11.4843 5.83333 14.243 5.83333 17.5C5.83333 20.7569 6.96354 23.5156 9.22396 25.776C11.4844 28.0364 14.2431 29.1666 17.5 29.1666Z" fill="#1C1B1F"/>
</g>
</svg>
