<svg width="35" height="35" viewBox="0 0 35 35" fill="none" xmlns="http://www.w3.org/2000/svg">
<mask id="mask0_12_13" style="mask-type:alpha" maskUnits="userSpaceOnUse" x="0" y="0" width="35" height="35">
<rect width="35" height="35" fill="#D9D9D9"/>
</mask>
<g mask="url(#mask0_12_13)">
<path d="M16.0417 5.83331V1.45831H18.9583V5.83331H16.0417ZM16.0417 33.5416V29.1666H18.9583V33.5416H16.0417ZM29.1667 18.9583V16.0416H33.5417V18.9583H29.1667ZM1.45834 18.9583V16.0416H5.83334V18.9583H1.45834ZM27.2708 9.77081L25.2292 7.72915L27.7813 5.10415L29.8958 7.21873L27.2708 9.77081ZM7.21875 29.8958L5.10417 27.7812L7.72917 25.2291L9.77084 27.2708L7.21875 29.8958ZM27.7813 29.8958L25.2292 27.2708L27.2708 25.2291L29.8958 27.7812L27.7813 29.8958ZM7.72917 9.77081L5.10417 7.21873L7.21875 5.10415L9.77084 7.72915L7.72917 9.77081ZM17.5 26.25C15.0694 26.25 13.0035 25.3993 11.3021 23.6979C9.6007 21.9965 8.75 19.9305 8.75 17.5C8.75 15.0694 9.6007 13.0035 11.3021 11.3021C13.0035 9.60067 15.0694 8.74998 17.5 8.74998C19.9306 8.74998 21.9965 9.60067 23.6979 11.3021C25.3993 13.0035 26.25 15.0694 26.25 17.5C26.25 19.9305 25.3993 21.9965 23.6979 23.6979C21.9965 25.3993 19.9306 26.25 17.5 26.25ZM17.5 23.3333C19.1285 23.3333 20.5078 22.7682 21.638 21.638C22.7682 20.5078 23.3333 19.1285 23.3333 17.5C23.3333 15.8715 22.7682 14.4922 21.638 13.362C20.5078 12.2318 19.1285 11.6666 17.5 11.6666C15.8715 11.6666 14.4922 12.2318 13.362 13.362C12.2318 14.4922 11.6667 15.8715 11.6667 17.5C11.6667 19.1285 12.2318 20.5078 13.362 21.638C14.4922 22.7682 15.8715 23.3333 17.5 23.3333Z" fill="black"/>
</g>
</svg>
